<svg width="18" height="18" viewBox="0 0 18 18" fill="none" xmlns="http://www.w3.org/2000/svg">
<path d="M9.00316 4.7272C6.63841 4.7272 4.73099 6.63505 4.73099 9.00033C4.73099 11.3656 6.63841 13.2734 9.00316 13.2734C11.3679 13.2734 13.2753 11.3656 13.2753 9.00033C13.2753 6.63505 11.3679 4.7272 9.00316 4.7272ZM9.00316 11.7784C7.475 11.7784 6.22569 10.5326 6.22569 9.00033C6.22569 7.4681 7.47128 6.22224 9.00316 6.22224C10.535 6.22224 11.7806 7.4681 11.7806 9.00033C11.7806 10.5326 10.5313 11.7784 9.00316 11.7784ZM14.4466 4.55241C14.4466 5.10654 14.0004 5.5491 13.4501 5.5491C12.8961 5.5491 12.4536 5.10282 12.4536 4.55241C12.4536 4.002 12.8998 3.55572 13.4501 3.55572C14.0004 3.55572 14.4466 4.002 14.4466 4.55241ZM17.2761 5.56398C17.2129 4.22886 16.908 3.04622 15.9301 2.07184C14.9559 1.09747 13.7736 0.792508 12.4387 0.725566C11.063 0.647467 6.93958 0.647467 5.56386 0.725566C4.23276 0.788789 3.05038 1.09375 2.0725 2.06812C1.09463 3.0425 0.793457 4.22514 0.72653 5.56026C0.648448 6.93628 0.648448 11.0606 0.72653 12.4367C0.789739 13.7718 1.09463 14.9544 2.0725 15.9288C3.05038 16.9032 4.22904 17.2081 5.56386 17.2751C6.93958 17.3532 11.063 17.3532 12.4387 17.2751C13.7736 17.2119 14.9559 16.9069 15.9301 15.9288C16.9043 14.9544 17.2091 13.7718 17.2761 12.4367C17.3542 11.0606 17.3542 6.94 17.2761 5.56398ZM15.4988 13.9131C15.2088 14.642 14.6473 15.2036 13.9149 15.4974C12.818 15.9325 10.2153 15.8321 9.00316 15.8321C7.79104 15.8321 5.18461 15.9288 4.09147 15.4974C3.36271 15.2073 2.80127 14.6458 2.50753 13.9131C2.07251 12.816 2.1729 10.2127 2.1729 9.00033C2.1729 7.78793 2.07622 5.18092 2.50753 4.08754C2.79755 3.35861 3.35899 2.79705 4.09147 2.50324C5.18833 2.06812 7.79104 2.16854 9.00316 2.16854C10.2153 2.16854 12.8217 2.07184 13.9149 2.50324C14.6436 2.79333 15.2051 3.35489 15.4988 4.08754C15.9338 5.18464 15.8334 7.78793 15.8334 9.00033C15.8334 10.2127 15.9338 12.8197 15.4988 13.9131Z" fill="white"/>
</svg>
