<svg width="20" height="10" viewBox="0 0 20 10" fill="none" xmlns="http://www.w3.org/2000/svg">
<path fill-rule="evenodd" clip-rule="evenodd" d="M10.8978 9.96136C10.8978 9.96136 11.2287 9.92914 11.3981 9.76961C11.5533 9.62343 11.5479 9.34759 11.5479 9.34759C11.5479 9.34759 11.5273 8.05954 12.2096 7.86936C12.8822 7.68232 13.7457 9.11497 14.6621 9.66587C15.3543 10.0824 15.8798 9.99122 15.8798 9.99122L18.3286 9.96136C18.3286 9.96136 19.6091 9.8922 19.002 9.00966C18.9518 8.93736 18.6478 8.3566 17.1818 7.16364C15.6457 5.91488 15.852 6.11685 17.7009 3.95648C18.8272 2.64092 19.2773 1.83775 19.1365 1.49432C19.0029 1.16583 18.1744 1.25306 18.1744 1.25306L15.418 1.26799C15.418 1.26799 15.2135 1.24363 15.062 1.323C14.914 1.40081 14.8181 1.58234 14.8181 1.58234C14.8181 1.58234 14.3823 2.60005 13.8004 3.46609C12.5728 5.29247 12.0823 5.38913 11.8815 5.27596C11.4143 5.01112 11.5308 4.21346 11.5308 3.64684C11.5308 1.87626 11.8375 1.13832 10.9346 0.947354C10.6351 0.883698 10.4145 0.842047 9.64781 0.834974C8.66415 0.826329 7.83203 0.838118 7.36037 1.04009C7.04653 1.17447 6.80443 1.47468 6.95238 1.49197C7.13441 1.51319 7.54688 1.58942 7.76567 1.85033C8.04813 2.18747 8.03827 2.94348 8.03827 2.94348C8.03827 2.94348 8.20057 5.02763 7.65897 5.28618C7.28774 5.46379 6.77843 5.1015 5.68357 3.44408C5.12315 2.59534 4.69991 1.657 4.69991 1.657C4.69991 1.657 4.61831 1.48175 4.47215 1.38745C4.29551 1.27349 4.04892 1.23813 4.04892 1.23813L1.42971 1.25306C1.42971 1.25306 1.03606 1.26249 0.891695 1.41259C0.763469 1.54541 0.881832 1.82125 0.881832 1.82125C0.881832 1.82125 2.93255 6.02648 5.25496 8.14599C7.38458 10.0887 9.80204 9.96136 9.80204 9.96136H10.8978Z" fill="white"/>
</svg>
