<svg width="18" height="18" viewBox="0 0 18 18" fill="none" xmlns="http://www.w3.org/2000/svg">
<path fill-rule="evenodd" clip-rule="evenodd" d="M9.03619 17.1904H9.03276C7.6439 17.19 6.2792 16.8432 5.06712 16.1852L0.667969 17.3337L1.84526 13.0541C1.11905 11.8016 0.736921 10.3808 0.737544 8.92524C0.739364 4.37168 4.46207 0.666992 9.03611 0.666992C11.2561 0.667946 13.3396 1.52803 14.9064 3.08911C16.4731 4.65011 17.3355 6.72506 17.3346 8.93175C17.3328 13.4843 13.6116 17.1886 9.03619 17.1904ZM5.2713 14.6901L5.52316 14.8389C6.58215 15.4643 7.79607 15.7952 9.03375 15.7957H9.03655C12.8382 15.7957 15.9323 12.7163 15.9338 8.93131C15.9346 7.09712 15.2178 5.37251 13.9156 4.075C12.6133 2.77749 10.8816 2.06259 9.03926 2.06195C5.2347 2.06195 2.14052 5.14104 2.13901 8.92575C2.13847 10.2228 2.50313 11.486 3.19357 12.5789L3.35756 12.8386L2.66078 15.3716L5.2713 14.6901ZM13.217 10.8956C13.1651 10.8095 13.0269 10.7579 12.8196 10.6546C12.6122 10.5513 11.5928 10.0521 11.4027 9.9832C11.2127 9.91436 11.0744 9.87996 10.9362 10.0865C10.798 10.293 10.4006 10.7579 10.2796 10.8956C10.1587 11.0333 10.0377 11.0506 9.83044 10.9473C9.62309 10.844 8.95496 10.6261 8.16295 9.92303C7.54653 9.37583 7.13039 8.7001 7.00944 8.4935C6.88848 8.2869 6.99654 8.17526 7.10034 8.07236C7.19363 7.97987 7.30771 7.83128 7.41138 7.71081C7.51505 7.59035 7.5496 7.50422 7.61872 7.36659C7.68783 7.22881 7.65329 7.10835 7.60144 7.00505C7.5496 6.90175 7.13492 5.88601 6.96214 5.47281C6.79381 5.07042 6.62288 5.12493 6.49561 5.11858C6.3748 5.11254 6.23641 5.11127 6.0982 5.11127C5.95998 5.11127 5.73532 5.16292 5.54526 5.36951C5.35521 5.57611 4.81955 6.07536 4.81955 7.09102C4.81955 8.10677 5.56253 9.08802 5.66622 9.22573C5.76989 9.36351 7.12833 11.4478 9.20838 12.3417C9.70309 12.5543 10.0893 12.6813 10.3905 12.7764C10.8872 12.9335 11.3392 12.9113 11.6964 12.8581C12.0949 12.7989 12.9232 12.359 13.0961 11.8769C13.2688 11.3948 13.2688 10.9817 13.217 10.8956Z" fill="white"/>
</svg>
