<svg width="133" height="32" viewBox="0 0 133 32" fill="none" xmlns="http://www.w3.org/2000/svg">
<g clip-path="url(#clip0_13925_16168)">
<path d="M13.0873 18.9073C13.0873 14.7592 10.3829 12.5275 6.96551 12.5275C3.52356 12.5275 0.84375 14.7592 0.84375 18.9073C0.84375 23.0312 3.52356 25.2872 6.96551 25.2872C10.3829 25.2872 13.0873 23.0555 13.0873 18.9073ZM9.57157 18.9073C9.57157 21.1391 8.66191 22.352 6.96551 22.352C5.26912 22.352 4.35946 21.1391 4.35946 18.9073C4.35946 16.6756 5.26912 15.4627 6.96551 15.4627C8.66191 15.4627 9.57157 16.6756 9.57157 18.9073Z" fill="white"/>
<path d="M23.3854 12.4305C22.9122 12.7094 22.0947 12.7034 21.0006 12.6973C20.8531 12.6973 20.6933 12.6973 20.5335 12.6973C16.7228 12.6973 14.6822 14.7956 14.6822 19.5138V20.1202C14.6822 23.4678 16.5015 25.2872 19.5747 25.2872C22.6479 25.2872 24.4672 23.4739 24.4672 20.6782C24.4672 18.0947 22.906 16.4088 20.3614 16.4088C18.7019 16.4088 17.8045 17.1365 17.2882 18.2524H17.2145C17.4603 16.0449 18.3208 15.3414 20.6564 15.3414C22.7216 15.3414 23.4592 15.1959 24.2213 14.6622L23.3854 12.4305ZM19.5993 22.8129C18.6896 22.8129 18.1487 22.0851 18.1487 20.8237C18.1487 19.5381 18.6896 18.8103 19.5993 18.8103C20.4598 18.8103 21.0006 19.5381 21.0006 20.8237C21.0006 22.0851 20.4598 22.8129 19.5993 22.8129Z" fill="white"/>
<path d="M26.1558 28.6105H29.5486V23.5891H29.5978C29.9911 24.5352 30.9008 25.2387 32.2284 25.2387C34.2444 25.2387 35.9408 23.6862 35.9408 20.4599C35.9408 17.088 34.1215 15.681 32.253 15.681C30.8516 15.681 29.9666 16.4815 29.5978 17.4276H29.524V15.8023H26.1558V28.6105ZM29.4749 20.4599C29.4749 19.0771 30.0403 18.2524 30.9746 18.2524C31.9088 18.2524 32.4497 19.0771 32.4497 20.4599C32.4497 21.8426 31.9088 22.6673 30.9746 22.6673C30.0403 22.6673 29.4749 21.8183 29.4749 20.4599Z" fill="white"/>
<path d="M40.2524 25.2629C41.4817 25.2629 42.4098 24.8505 42.9814 23.8075H43.0552V25.1174H46.2267V18.7375C46.2267 17.0152 44.5733 15.681 41.8751 15.681C39.0539 15.681 37.6648 17.1365 37.548 18.8346H40.6704C40.7503 18.2584 41.1805 17.9855 41.8259 17.9855C42.4159 17.9855 42.8339 18.2524 42.8339 18.7375V18.7618C42.8339 19.3015 42.2315 19.4713 40.6458 19.5866C38.6974 19.726 37.1792 20.5023 37.1792 22.546C37.1792 24.4018 38.4454 25.2629 40.2524 25.2629ZM41.3588 23.1525C40.781 23.1525 40.3753 22.8735 40.3753 22.352C40.3753 21.8729 40.7195 21.5029 41.5063 21.3817C42.0472 21.2968 42.502 21.1876 42.8585 21.042V21.8183C42.8585 22.6673 42.1271 23.1525 41.3588 23.1525Z" fill="white"/>
<path d="M47.6894 22.3035C47.7632 24.3229 49.5518 25.2872 51.9919 25.2872C54.4873 25.2872 56.2697 24.2987 56.2697 22.546C56.2697 21.1573 55.1695 20.4295 53.9587 20.3628V20.2658C55.3171 19.9747 56.0239 19.2712 56.0239 18.3252C56.0239 16.6028 54.4996 15.681 51.9673 15.681C49.7546 15.681 47.9599 16.7241 47.9599 18.5192H51.156C51.156 18.119 51.5555 17.84 52.1148 17.84C52.6741 17.84 53.0736 18.1796 53.0736 18.6648C53.0736 19.0893 52.668 19.3925 52.0902 19.3925H50.9101V21.3574H52.0902C52.6803 21.3574 53.0982 21.7091 53.0982 22.2064C53.0982 22.734 52.6372 23.104 51.9919 23.104C51.3465 23.104 50.8855 22.7704 50.8855 22.3035H47.6894Z" fill="white"/>
<path d="M62.3976 25.2872C65.4708 25.2872 67.2901 23.3465 67.2901 20.4841C67.2901 17.6217 65.4708 15.681 62.3976 15.681C59.3244 15.681 57.5051 17.6217 57.5051 20.4841C57.5051 23.3465 59.3244 25.2872 62.3976 25.2872ZM62.4222 22.8129C61.5125 22.8129 60.9716 21.9214 60.9716 20.4599C60.9716 18.9983 61.5125 18.1068 62.4222 18.1068C63.2827 18.1068 63.8235 18.9983 63.8235 20.4599C63.8235 21.9214 63.2827 22.8129 62.4222 22.8129Z" fill="white"/>
<path d="M68.9265 25.1174H73.6961C76.3513 25.1174 77.7772 24.2441 77.7772 22.546C77.7772 21.4787 76.8922 20.3871 74.7532 20.29C76.3021 20.0475 77.138 19.2712 77.138 18.3494C77.138 16.6514 75.5891 15.8023 73.0568 15.8023H68.9265V25.1174ZM72.0734 22.7644V21.2846H73.6961C74.2431 21.2846 74.5811 21.5697 74.5811 22.0366C74.5811 22.4915 74.2431 22.7644 73.6961 22.7644H72.0734ZM72.0734 19.5866V18.2281H73.0568C73.6346 18.2281 73.9911 18.4828 73.9911 18.9073C73.9911 19.3319 73.6776 19.5866 73.1552 19.5866H72.0734Z" fill="white"/>
<path d="M81.9751 25.2629C83.2044 25.2629 84.1325 24.8505 84.7041 23.8075H84.7779V25.1174H87.9494V18.7375C87.9494 17.0152 86.296 15.681 83.5978 15.681C80.7766 15.681 79.3875 17.1365 79.2707 18.8346H82.3931C82.473 18.2584 82.9032 17.9855 83.5486 17.9855C84.1386 17.9855 84.5566 18.2524 84.5566 18.7375V18.7618C84.5566 19.3015 83.9542 19.4713 82.3685 19.5866C80.4201 19.726 78.9019 20.5023 78.9019 22.546C78.9019 24.4018 80.1681 25.2629 81.9751 25.2629ZM83.0815 23.1525C82.5037 23.1525 82.0981 22.8735 82.0981 22.352C82.0981 21.8729 82.4422 21.5029 83.229 21.3817C83.7699 21.2968 84.2247 21.1876 84.5812 21.042V21.8183C84.5812 22.6673 83.8498 23.1525 83.0815 23.1525Z" fill="white"/>
<path d="M84.2984 14.6379H86.5357L88.3796 11.9211H85.4785L84.2984 14.6379Z" fill="white"/>
<path d="M93.2858 15.8023H90.0897V25.1174H93.2858V21.6728H95.646V25.1174H98.8175V15.8023H95.646V19.1742H93.2858V15.8023Z" fill="white"/>
<path d="M103.89 20.848V15.8023H100.694V25.1174H103.89L106.52 20.0475V25.1174H109.716V15.8023H106.52L103.89 20.848Z" fill="white"/>
<path d="M116.227 25.2872C118.845 25.2872 120.529 24.05 120.849 22.1094H117.751C117.555 22.637 116.995 22.9342 116.301 22.9342C115.293 22.9342 114.703 22.2792 114.703 21.3817V21.2361H120.849V20.4599C120.849 17.4943 119.005 15.681 116.153 15.681C113.228 15.681 111.359 17.5974 111.359 20.4841C111.359 23.4982 113.203 25.2872 116.227 25.2872ZM114.703 19.3925C114.721 18.5859 115.397 18.0341 116.227 18.0341C117.069 18.0341 117.708 18.592 117.727 19.3925H114.703Z" fill="white"/>
<path d="M94.4681 9.53684C95.8008 9.53684 96.6978 8.59976 96.6978 7.18822C96.6978 5.76481 95.8008 4.82773 94.4681 4.82773C93.1353 4.82773 92.2383 5.76481 92.2383 7.18822C92.2383 8.59976 93.1353 9.53684 94.4681 9.53684ZM94.4681 8.90817C93.4557 8.90817 92.9944 8.10157 92.9944 7.18822C92.9944 6.27486 93.4557 5.4564 94.4681 5.4564C95.4804 5.4564 95.9418 6.27486 95.9418 7.18822C95.9418 8.10157 95.4804 8.90817 94.4681 8.90817Z" fill="#787878"/>
<path d="M99.42 6.70189C99.42 5.90715 99.9518 5.4564 100.676 5.4564C101.377 5.4564 101.804 5.88046 101.804 6.59513V9.44195H102.56V6.54768C102.56 5.38523 101.89 4.82773 100.894 4.82773C100.15 4.82773 99.6891 5.13613 99.4584 5.59874H99.3944V4.88704H98.6639V9.44195H99.42V6.70189Z" fill="#787878"/>
<path d="M105.509 3.36873H104.753V9.44195H105.509V3.36873Z" fill="#787878"/>
<path d="M107.706 9.44195H108.462V4.88704H107.706V9.44195ZM108.09 4.12789C108.385 4.12789 108.629 3.91438 108.629 3.65342C108.629 3.39246 108.385 3.17895 108.09 3.17895C107.796 3.17895 107.552 3.39246 107.552 3.65342C107.552 3.91438 107.796 4.12789 108.09 4.12789Z" fill="#787878"/>
<path d="M111.415 6.70189C111.415 5.90715 111.947 5.4564 112.671 5.4564C113.372 5.4564 113.798 5.88046 113.798 6.59513V9.44195H114.555V6.54768C114.555 5.38523 113.885 4.82773 112.889 4.82773C112.145 4.82773 111.684 5.13613 111.453 5.59874H111.389V4.88704H110.659V9.44195H111.415V6.70189Z" fill="#787878"/>
<path d="M118.811 9.53684C119.811 9.53684 120.541 9.07423 120.772 8.38625L120.041 8.19647C119.849 8.67093 119.404 8.90817 118.811 8.90817C117.924 8.90817 117.312 8.37736 117.277 7.40173H120.849V7.10518C120.849 5.40895 119.76 4.82773 118.734 4.82773C117.402 4.82773 116.517 5.80039 116.517 7.20008C116.517 8.59976 117.389 9.53684 118.811 9.53684ZM117.277 6.79678C117.328 6.08804 117.869 5.4564 118.734 5.4564C119.555 5.4564 120.08 6.02577 120.08 6.79678H117.277Z" fill="#787878"/>
</g>
<defs>
<clipPath id="clip0_13925_16168">
<rect width="132.805" height="32" fill="white" transform="translate(0.0488281)"/>
</clipPath>
</defs>
</svg>
