<svg width="18" height="18" viewBox="0 0 18 18" fill="none" xmlns="http://www.w3.org/2000/svg">
<path d="M14.0556 2.5186C14.0001 3.34267 13.8612 4.14823 13.639 4.91675L14.7501 6.02786C15.1297 4.91675 15.3704 3.74082 15.4538 2.5186H14.0556ZM4.92601 13.6482C4.13897 13.8705 3.33341 14.0093 2.5186 14.0649V15.4445C3.74082 15.3612 4.91675 15.1204 6.03712 14.7501L4.92601 13.6482ZM13.1667 0.666748H16.4075C16.9167 0.666748 17.3334 1.08341 17.3334 1.59267C17.3334 10.2871 10.2871 17.3334 1.59267 17.3334C1.08341 17.3334 0.666748 16.9167 0.666748 16.4075V13.176C0.666748 12.6667 1.08341 12.2501 1.59267 12.2501C2.74082 12.2501 3.86119 12.0649 4.89823 11.7223C4.99082 11.6853 5.09267 11.676 5.18527 11.676C5.42601 11.676 5.65749 11.7686 5.84267 11.9445L7.87971 13.9816C10.5001 12.639 12.6482 10.5001 13.9816 7.87971L11.9445 5.84267C11.6853 5.58341 11.6112 5.2223 11.713 4.89823C12.0556 3.86119 12.2408 2.75008 12.2408 1.59267C12.2408 1.08341 12.6575 0.666748 13.1667 0.666748Z" fill="#252525"/>
</svg>
